<?xml version="1.0" encoding="UTF-8" standalone="no"?>
<!DOCTYPE svg PUBLIC "-//W3C//DTD SVG 1.1//EN" "http://www.w3.org/Graphics/SVG/1.1/DTD/svg11.dtd">
<svg width="100%" height="100%" viewBox="0 0 506 168" version="1.1" xmlns="http://www.w3.org/2000/svg" xmlns:xlink="http://www.w3.org/1999/xlink" xml:space="preserve" xmlns:serif="http://www.serif.com/" style="fill-rule:evenodd;clip-rule:evenodd;stroke-linejoin:round;stroke-miterlimit:1.41421;">
    <g transform="matrix(1,0,0,1,-122,-541)">
        <g transform="matrix(2.15895,0,0,2.15895,-88.497,-1262.08)">
            <path d="M226.105,886.388C226.677,885.815 226.677,885.014 225.647,885.243C224.96,885.357 224.273,885.357 223.472,885.357C223.701,884.442 223.701,883.64 223.816,882.724C224.388,874.482 221.068,873.795 218.321,870.132C216.031,867.041 214.085,866.125 210.651,866.354C205.385,866.698 200.234,870.476 195.998,875.741C192.564,879.977 188.214,883.755 183.635,884.442C183.635,883.869 183.749,883.297 183.749,882.724C184.321,874.482 180.887,873.795 178.254,870.132C175.965,866.927 174.019,866.011 170.584,866.354C163.716,866.927 156.733,873.452 152.268,881.236C147.231,890.165 145.4,900.239 150.551,906.993C155.13,912.946 160.739,913.175 164.861,911.801C173.332,909.054 180.429,897.492 182.833,887.647C185.352,887.647 187.756,887.189 189.931,886.159C186.84,893.829 186.496,901.499 190.618,906.993C195.082,912.946 200.92,913.175 205.042,911.801C213.398,909.054 220.496,897.492 222.9,887.761C224.273,887.647 225.418,887.189 226.105,886.388ZM176.995,874.711C177.224,876.772 177.109,879.634 176.308,883.068C174.019,881.351 173.103,878.374 173.561,875.169C174.019,871.735 176.537,871.048 176.995,874.711ZM216.375,883.182C214.543,881.465 213.169,878.145 213.742,875.055C214.314,871.735 216.604,871.048 217.061,874.711C217.29,876.772 217.176,879.634 216.375,883.182ZM215.459,886.159C214.543,889.021 213.169,892.226 211.338,895.546C205.728,905.849 198.745,909.97 195.769,907.337C192.907,904.818 194.281,894.172 199.203,885.586C201.722,881.236 204.927,877.344 208.018,874.94C208.018,879.061 210.765,883.068 213.398,884.9C213.971,885.472 214.657,885.93 215.459,886.159ZM167.951,874.94C167.951,879.748 171.729,884.098 175.392,886.044C174.591,888.906 173.103,892.111 171.271,895.546C165.662,905.849 158.793,909.741 155.702,907.337C152.497,904.818 154.214,894.172 159.137,885.586C161.655,881.236 164.861,877.344 167.951,874.94Z" style="fill:white;"/>
            <text x="94px" y="911px" style="font-family:'SignPainter-HouseScript', 'SignPainter';font-size:114.476px;fill:white;">C<tspan x="225.991px " y="911px ">k</tspan>ie</text>
        </g>
    </g>
</svg>
